<svg width="23" height="25" viewBox="0 0 23 25" fill="none" xmlns="http://www.w3.org/2000/svg">
<path d="M11.1311 12.5C14.603 12.5 17.4168 9.70215 17.4168 6.25C17.4168 2.79785 14.603 0 11.1311 0C7.65923 0 4.84539 2.79785 4.84539 6.25C4.84539 9.70215 7.65923 12.5 11.1311 12.5ZM15.5311 14.0625H14.711C13.6208 14.5605 12.4079 14.8438 11.1311 14.8438C9.85432 14.8438 8.64628 14.5605 7.55119 14.0625H6.7311C3.08735 14.0625 0.131104 17.002 0.131104 20.625V22.6562C0.131104 23.9502 1.18691 25 2.48825 25H19.774C21.0753 25 22.1311 23.9502 22.1311 22.6562V20.625C22.1311 17.002 19.1749 14.0625 15.5311 14.0625Z" fill="#0E9549"/>
</svg>
